<svg width="7" height="30" viewBox="0 0 7 30" fill="none" xmlns="http://www.w3.org/2000/svg">
<path fill-rule="evenodd" clip-rule="evenodd" d="M0.617317 0.0761497C0.990991 -0.0786313 1.42111 0.00692445 1.70711 0.292922C2.6156 1.20142 3.80382 3.17065 4.7659 6.21082C5.73728 9.28039 6.5 13.5081 6.5 19C6.5 19.5523 6.05228 20 5.5 20H2V29C2 29.5523 1.55228 30 1 30C0.447715 30 0 29.5523 0 29V1.00003C0 0.595567 0.243642 0.230931 0.617317 0.0761497ZM2 18H4.49115C4.40527 13.1836 3.70508 9.48754 2.8591 6.81424C2.58072 5.93457 2.28851 5.1715 2 4.51895V18Z" fill="white"/>
</svg>
