<svg width="170" height="80" viewBox="0 0 170 80" fill="none" xmlns="http://www.w3.org/2000/svg">
<g filter="url(#filter0_d_2403_597)">
<path fill-rule="evenodd" clip-rule="evenodd" d="M7 1H163C164.105 1 165 1.89543 165 3V69C165 70.1046 164.105 71 163 71H142V72H163C164.657 72 166 70.6569 166 69V3C166 1.34315 164.657 0 163 0H7C5.34315 0 4 1.34315 4 3V69C4 70.6569 5.34314 72 7 72H28V71H7C5.89543 71 5 70.1046 5 69V3C5 1.89543 5.89543 1 7 1Z" fill="#CDCDCD"/>
</g>
<defs>
<filter id="filter0_d_2403_597" x="0" y="0" width="170" height="80" filterUnits="userSpaceOnUse" color-interpolation-filters="sRGB">
<feFlood flood-opacity="0" result="BackgroundImageFix"/>
<feColorMatrix in="SourceAlpha" type="matrix" values="0 0 0 0 0 0 0 0 0 0 0 0 0 0 0 0 0 0 127 0" result="hardAlpha"/>
<feOffset dy="4"/>
<feGaussianBlur stdDeviation="2"/>
<feComposite in2="hardAlpha" operator="out"/>
<feColorMatrix type="matrix" values="0 0 0 0 0 0 0 0 0 0 0 0 0 0 0 0 0 0 0.25 0"/>
<feBlend mode="normal" in2="BackgroundImageFix" result="effect1_dropShadow_2403_597"/>
<feBlend mode="normal" in="SourceGraphic" in2="effect1_dropShadow_2403_597" result="shape"/>
</filter>
</defs>
</svg>
